<svg width="1522" height="629" viewBox="0 0 1522 629" xmlns="http://www.w3.org/2000/svg"><title>LogotypeColor</title><defs><linearGradient x1="74.999%" y1="-2.852%" x2="14.75%" y2="105.737%" id="a"><stop stop-color="#C4B8FD" offset="0%"/><stop stop-color="#817B9E" offset="47.18%"/><stop stop-color="#443A53" offset="100%"/></linearGradient><linearGradient x1="109.099%" y1="4.931%" x2="0%" y2="104.952%" id="b"><stop stop-color="#FC7F7F" offset="0%"/><stop stop-color="#E05858" offset="47.75%"/><stop stop-color="#C73661" offset="100%"/></linearGradient></defs><g fill="none" fill-rule="evenodd"><text font-family="Dosis-SemiBold, Dosis" font-size="240" font-weight="500" fill="#817B9E"><tspan x="505" y="389">Pocket</tspan></text><text font-family="Dosis-Regular, Dosis" font-size="240" letter-spacing="3.2" fill="#E05858"><tspan x="521" y="485">Campaig</tspan> <tspan x="1336.84" y="485">n</tspan></text><path d="M69.901 396.011c.09 5.667-1.016 8.949-3.319 9.846-3.055 1.19-6.144-.832-9.267-6.067l-35.618-80.86c-3.562-7.916-5.933-14.54-7.112-19.87-1.18-5.33-2.436-15.008-3.769-29.034L0 64.713c.57-12.2 5.432-22.656 14.585-31.364 9.152-8.708 23.125-13.871 41.917-15.49L256.598.535c11.422-1.036 21.534-.564 30.336 1.414 8.802 1.979 16.462 5.685 22.98 11.12l65.736 61.266c5.977 4.934 7.576 11.804 4.797 20.61-2.78 8.806-11.126 13.647-25.04 14.522l-251.609 23.372c-11.225 1.147-20.942 6.106-29.15 14.876C65.84 157.127 61.623 167.282 62 178.18l7.902 217.832z" fill="url(#a)" transform="translate(76 92)"/><path d="M113.546 136.861c-3.052-5.945-1.927-10.559 3.375-13.84 5.302-3.283 12-5.182 20.092-5.698l201.203-16.167c6.294-.537 12.781-.196 19.462 1.022 6.681 1.218 12.168 3.792 16.46 7.723l67.354 63.358c2.1 3.646 2.476 6.764 1.126 9.352-1.35 2.589-5.307 3.971-11.87 4.147l-251.777 24.084c-7.642.623-13.883-.201-18.722-2.474-4.84-2.273-9.219-6.858-13.137-13.754l-33.566-57.753zm62.432-15.428c-8.859 0-19.514 1.99-20.958 5.879-1.444 3.889 7.865 5.995 18.507 6.165 10.642.17 21.663-2.994 21.663-6.612s-11.066-5.432-19.212-5.432zM270.043 138c-8.86 0-19.711 2.422-21.155 6.311-1.444 3.889 8.698 7.005 19.34 7.175 10.642.17 22.608-3.403 22.608-7.02 0-3.619-12.648-6.466-20.793-6.466zm97.826 17.973c-10.791.466-19.003 2.14-20.446 6.029-1.444 3.888 9.336 7.477 21.123 7.784 11.787.308 22.531-2.543 22.531-6.368 0-3.824-10.994-7.972-23.208-7.445zM103.441 324.624c-.62-5.814-1.764-21.327.62-21.327 2.382 0 4.495 12.6 5.338 20.535.844 7.935.923 19.243-.826 19.243-1.75 0-4.513-12.636-5.132-18.45z" fill="#FFF"/><g><path d="M307.427 42.432c.594-17.61-1.735-29.06-6.986-34.351-5.946-5.992-13.274-8.643-21.984-7.954L48.291 22.371c-17.299 1.632-29.555 6.54-36.768 14.726C2.684 47.128-1.07 59.36.261 73.79l6.446 198.768c.878 15.406 3.939 26.263 9.181 32.573 9.254 11.136 21.998 16.65 38.232 16.54l214.196-33.637c14.887-2.297 24.094-6.195 27.618-11.695 5.528-8.625 8.665-18.358 9.41-29.198l2.083-204.71z" fill="url(#b)" transform="translate(154 212)"/><path d="M171.64 289.028c.12-11.003 3.222-19.853 9.307-26.548 6.372-7.013 15.99-10.984 28.853-11.915l218.871-23.176c10.434-.582 18.275 1.813 23.522 7.185 7.87 8.058 9.438 16.466 9.532 22.65 1.47 96.974.405 182.81-1.361 196.146-1.227 9.258-3.35 15.888-12.616 24.766-4.645 4.451-13.436 7.62-26.373 9.51l-203.263 30.322c-11.536 2.057-21.604-.407-30.205-7.393-5.762-4.68-9.043-13.297-9.843-25.85l-6.424-195.697zm54.684 182.767c7.835 8.689 20.174 5.939 27.65.937 7.474-5.002 14.539-17.712 7.138-27.238-7.4-9.525-22.205-8.424-30.293-2.071-8.088 6.352-12.33 19.684-4.495 28.372zm157.461-166.899c7.836 8.688 20.254 5.156 27.729.154 7.475-5.002 13.245-19.373 5.844-28.898-7.4-9.526-21.926-7.42-30.014-1.067-8.088 6.352-11.394 21.122-3.559 29.811z" fill="#FFF"/></g></g></svg>