<svg version="1" xmlns="http://www.w3.org/2000/svg" width="2048" height="2048" viewBox="0 0 1536.000000 1536.000000"><path d="M964.8 105.5c-.2.2-4.6.6-9.8 1-5.2.3-10.6.7-12 1-1.4.2-6.3.7-11 1-4.7.4-10.1.8-12 1-1.9.2-6.9.6-11 1-4.1.3-9.5.7-12 1-2.5.2-7.9.7-12 1.1-4.1.3-9.1.7-11 .9-1.9.2-7.3.6-12 1-4.7.3-10.1.8-12 1.1-1.9.2-6.4.6-10 .9-3.6.3-9.1.7-12.2 1-3.2.3-8.6.7-12 1-3.5.3-8.3.8-10.8 1-7.4.7-19.2 1.7-24 2-2.5.2-7.2.6-10.5.9-3.3.3-9.4.8-13.5 1.1-4.1.3-9.1.7-11 1-1.9.2-6.6.7-10.5 1-3.8.3-9.2.7-12 1-6.1.6-14 1.3-22.6 2-3.5.3-9.5.7-13.4 1-3.8.3-8.8.8-11 1-2.2.3-7.1.7-11 1-7 .5-13.1 1.1-22.7 2-2.9.3-8.2.7-11.8 1-3.6.3-9 .7-12 1-3 .3-8 .7-11 1-11.1.9-19.6 1.7-22.5 2-1.6.2-7.2.6-12.3 1-5 .3-10 .8-11 .9-.9.2-6 .7-11.2 1.1-5.2.4-11.1.8-13 1-1.9.2-6.9.6-11 1-4.1.3-8.8.7-10.5.9-1.6.3-7 .7-12 1.1-4.9.4-10.6.8-12.5 1-1.9.2-7.3.7-11.9 1-4.7.4-9.2.8-10 1-.9.1-6.3.6-12.1 1-5.8.3-11.6.8-13 1-1.4.2-5.9.6-10 1-4.1.3-9.5.8-12 1-2.5.3-7.9.7-12 1-4.1.3-9.1.8-11 1-1.9.2-7.1.6-11.5 1-4.4.3-10 .8-12.5 1-2.5.2-7.6.7-11.5 1-3.8.3-8.8.8-11 1-2.2.3-6.5.7-9.6 1-5.2.4-8.2.8-16.4 2.1-57.5 9-97.2 31.3-122.2 68.9-10.8 16.2-18.3 35.7-21 54.7-1 6.5-.9 21.6.1 40.3.4 7.7.9 16.7 1.1 20 1.2 23.5 1.6 29.9 2 37 .3 4.4.7 12.7 1 18.5.3 5.8.7 14.5 1 19.5.3 4.9.7 13.5 1 19 .3 5.5.7 14.2 1 19.2.9 17.6 1.5 27.8 2 38.8.3 6 .7 14.6 1 19 .2 4.4.7 13.4 1.1 20 .3 6.6.7 14.7.9 18 .2 3.3.6 11.8.9 19 .4 7.1.8 15.9 1.1 19.5.2 3.6.7 12.1 1 19 .4 6.9.8 15 1 18 .2 3 .6 12 1 20 .3 8 .8 16.7 1 19.5.2 2.7.7 10.8 1 18 .3 7.1.8 15.7 1 19 .2 3.3.7 11.8 1 19 .3 7.1.8 16.1 1 20 .3 3.8.7 11.5 1 17 .2 5.5.7 14.5 1 20 .3 5.5.7 14 1 19 .2 4.9.7 14.4 1.1 21 .4 6.6.8 14.5.9 17.5.4 8.7 1.6 30.9 2 38 .2 3.6.7 12.3 1 19.5.3 7.1.8 14.8 1 17 1.2 13.4 1.6 18.3 2 21 .2 1.6.7 6.1 1 10 .4 3.8.9 7.9 1.1 9 .2 1 .6 4.9 1 8.5.3 3.6.8 7.4 1 8.5.2 1.1.7 4 1 6.5 1.9 15.8 9.1 45.8 11.5 48.5.5.5.9 1.7.9 2.7 0 1 .4 2.6.9 3.6.5.9 2.1 4.7 3.5 8.5 1.4 3.7 3.5 8.6 4.5 11 1.1 2.3 4.5 10 7.6 17.2 7.5 16.9 42.2 95.8 44.5 101 1 2.2 7.5 17 14.5 33 7.1 15.9 18 40.7 24.3 55 6.3 14.3 12.6 28.7 13.9 32 6.6 15.7 13.6 26 20.7 30.5 3.8 2.3 11.1 2.9 14.4 1.1 3.8-2 6.2-6.5 7.9-14.6 1.1-5 .6-34.8-1.2-76.5-.2-4.1-.6-16.3-1-27-.3-10.7-.8-23.6-1-28.5-.2-5-.6-17.1-1-27-.4-9.9-.8-22.5-1-28-.3-5.5-.7-17.2-1-26-1.1-32.7-1.5-42.3-2-55.5-.3-7.4-.7-20.3-1-28.5-.3-8.3-.7-20.9-1-28-.5-14.1-1.2-31.5-2-55-.3-8.3-.7-20.6-1-27.5-.3-6.9-.7-19.5-1-28-.3-8.5-.8-21.6-1.1-29-.3-7.4-.7-19.4-.9-26.5-1-30.1-2.5-72.3-4-109.5-1.5-39.3-1.8-50.4-1.9-66.5-.1-9.9.2-20 .7-22.5 3.7-22.3 14.1-43.4 31-63.3 25.6-30.1 58.3-48 93.7-51.2 8-.7 17.1-1.6 31-3 2.5-.3 7.9-.7 12-1 4.1-.4 9.1-.8 11-1 1.9-.2 6.7-.6 10.5-1 3.9-.3 9-.8 11.5-1 8.1-.8 14.4-1.4 21-2 3.6-.3 8.1-.7 10-1 1.9-.2 6.7-.7 10.5-1 3.9-.3 9-.8 11.5-1 2.5-.2 7.7-.7 11.5-1 3.9-.3 8.6-.8 10.5-1 1.9-.3 6.4-.7 10-1 3.6-.3 8.5-.8 11-1 2.5-.2 7.4-.7 11-1 3.6-.3 8.1-.8 10-1 1.9-.2 7.3-.7 12-1 4.7-.3 9.2-.8 10-1 .8-.2 5.3-.6 10-1s9.9-.8 11.5-1c1.7-.1 6.4-.5 10.5-.9s9.5-.9 12-1.1c2.5-.3 7.2-.8 10.5-1 3.3-.3 7.6-.7 9.5-.9 1.9-.2 6.9-.7 11-1.1 4.1-.3 9.1-.8 11-1 1.9-.1 6.9-.6 11-1 4.1-.3 9.1-.8 11-1 1.9-.2 6.7-.6 10.5-.9 3.9-.4 8.8-.9 11-1.1 2.2-.3 6.7-.7 10-1 3.3-.3 8-.7 10.5-1 2.5-.2 7.9-.7 12-1 4.1-.3 8.6-.8 10-1 1.4-.2 6.5-.6 11.4-1 5-.4 9.7-.8 10.5-1 .9-.1 5.5-.6 10.2-.9 4.7-.4 9.8-.9 11.5-1.1 1.6-.1 6.3-.6 10.4-1 13.9-1.2 17.5-1.5 21.5-1.9 2.2-.3 7.4-.7 11.5-1.1 4.1-.4 8.6-.8 10-1 1.4-.2 6.6-.7 11.5-1.1 5-.3 9.7-.8 10.6-.9.8-.2 5.5-.6 10.5-1 4.9-.3 10-.8 11.4-1 1.4-.3 6.6-.7 11.5-1.1 5-.3 9.7-.8 10.5-.9.8-.2 4.9-.6 9-.9 7.1-.6 10.4-.9 21.8-2.1 2.6-.2 7.9-.7 11.7-1 3.9-.3 8.8-.8 11-1 2.2-.2 6.9-.7 10.5-1 3.6-.3 8.8-.8 11.5-1.1 2.8-.2 7-.6 9.5-.9 2.5-.2 7.9-.7 12-1.1 4.1-.4 8.9-.8 10.5-1 1.7-.1 6.4-.5 10.5-.9 4.1-.3 8.9-.8 10.5-1 1.7-.2 6.8-.7 11.5-1 4.7-.4 9.3-.9 10.2-1 .9-.2 6.1-.7 11.5-1 5.4-.4 10.5-.8 11.3-1 .8-.2 5.3-.6 10-1s9.2-.9 10.1-1c.8-.2 5.3-.6 10-1 4.6-.3 9.5-.8 10.9-1 9.6-1.3 12.3-1.9 18.8-3.6 25.2-6.7 40.2-19.6 46.7-40 7.4-23.6 3.8-42.5-11-57.3-5-5.1-19-18.2-31.4-29.5-1.4-1.3-8.2-7.7-15.1-14.1-6.9-6.4-13.8-12.9-15.5-14.4-1.6-1.5-8.4-7.9-15-14-6.6-6.2-13.3-12.5-15-14-2.6-2.4-21.4-19.9-28-26.1-19-17.9-42.8-40-44.5-41.5-1-.8-7.5-7-14.6-13.6-7.1-6.7-14.9-14-17.4-16.3-5.2-4.8-18.5-15.1-19.5-15.1-.4 0-2-.9-3.6-2.1-5.2-3.7-21.2-11.1-31.3-14.6-12.6-4.3-26-7.3-39.1-8.9-2.7-.3-6.1-.8-7.5-1.1-3-.6-50.6-1.4-51.2-.8zm37.6 26.9c5.9.4 11.1.8 11.5 1 .3.2 3.3.7 6.6 1 6.5.7 21.2 4 26 5.9 5.2 2.1 20.4 9.7 21.7 11 .7.7 2.9 2.4 4.8 3.9 1.9 1.4 5.8 4.8 8.5 7.3 2.8 2.6 8.4 8 12.6 11.9 4.1 3.9 14.2 13.4 22.4 21.1 8.2 7.7 18.6 17.4 23 21.7 4.4 4.2 9 8.5 10.1 9.5 1.2 1 8.6 7.9 16.5 15.4s16 15.1 17.9 16.9c1.9 1.8 9.3 8.7 16.4 15.4 13.9 13.1 13.5 12.7 34.7 32.7 7.9 7.5 15.6 14.7 17 16 28.7 26.4 31.5 29.9 32.6 41.3 1.3 14.4-7.3 22-27.5 24-3.1.4-8.2.8-11.2 1.1-3 .3-7.5.7-10 1-2.5.3-7.4.7-11 1-3.6.3-8.5.7-11 1-2.5.3-7 .7-10 1-3 .3-7.7.8-10.5 1.1-8.2.8-12.6 1.2-21.5 1.9-4.7.4-9.2.8-10 1-.8.2-5.5.7-10.5 1.1-4.9.3-9.9.8-11 1-1.1.2-5.4.6-9.5.9-4.1.3-9.1.8-11 1-1.9.2-6.6.7-10.5 1-3.8.4-8.1.8-9.5 1-1.4.2-6.1.7-10.5 1-4.4.3-9.6.8-11.5 1-1.9.3-6.6.7-10.5 1-3.8.4-8.1.8-9.5 1-1.4.2-5.9.7-10 1-4.1.3-9.1.7-11 1-1.9.2-6.9.7-11 1.1-4.1.3-8.6.8-10 .9-1.4.1-5.9.6-10 .9-4.1.4-9.1.9-11 1.1-1.9.2-6.9.7-11 1-4.1.3-9.1.8-11 1-7.1.8-12.9 1.4-31.5 3.1-3.8.3-8.1.8-9.5.9-1.4.2-5.6.6-9.5.9-3.8.4-9 .9-11.5 1.1-2.5.3-7 .7-10 1-3 .3-7.5.7-10 1-2.5.2-7.9.7-12 1.1-4.1.4-8.6.8-10 .9-1.4.1-5.6.5-9.5.9-3.8.4-9 .9-11.5 1.1-2.5.3-7 .7-10 1-3 .3-7.5.7-10 1-2.5.3-7.4.7-11 1-7.2.6-14.1 1.2-21.2 2-6.8.7-13.1 1.3-21.8 2.1-8.1.7-9.2.8-19 1.8-3.6.4-8.5.9-11 1.1-7 .6-16 1.5-22 2.1-3 .3-7.3.7-9.5.9-2.2.2-9.4.8-16 1.5-6.6.6-14.2 1.3-17 1.6-2.7.2-7.5.7-10.5.9-3 .3-7.7.8-10.5 1-2.7.3-6.6.7-8.5 1-1.9.2-6.9.7-11 1-4.1.3-8.9.7-10.6 1-1.7.2-6.4.6-10.5.9-4.1.4-9 .8-10.9 1.1-1.9.3-6.7.7-10.6 1-3.9.3-8 .7-9 .9-1 .2-5.9.7-10.7 1.1-4.8.3-9.6.8-10.6 1-1 .2-5.6.6-10.2.9-4.6.4-9.7.8-11.4 1-1.6.3-6.4.7-10.5 1.1-4.1.3-11.3 1-16 1.5-21 2.2-25.4 2.5-40.5 2.5-20.1-.1-29.6-1.9-42-8-10.9-5.3-21.4-14.6-29.6-26.1-3.1-4.4-10.5-16.2-16.4-26.4-5.9-10.2-13.8-23.7-17.5-30-24.5-41.9-53-91.3-53-92.1 0-.5-.4-.9-1-.9-.5 0-1-.4-1-.8 0-.7-3.7-7.3-10.5-19-13.5-23.1-15.7-28.1-15.6-36.5.1-11.4 7-19.9 22.3-27.5 8.6-4.3 20.9-8.6 27.2-9.6 1.9-.3 5.5-1 7.8-1.5 2.4-.5 7.9-1.2 12.3-1.6 4.4-.3 10-.8 12.5-1 2.5-.3 7.9-.7 12-1 4.1-.3 9.1-.7 11-1 1.9-.2 7.8-.7 13-1 5.2-.4 11.1-.8 13-1 3.4-.3 11.6-1 25-2 3.6-.3 9.2-.8 12.5-1 3.3-.3 9.2-.7 13-1 3.9-.3 8.6-.8 10.5-1 1.9-.2 8-.7 13.4-1 5.5-.4 10.7-.8 11.5-1 .9-.2 6.3-.6 12.1-1 5.8-.3 12.1-.8 14-1 1.9-.2 7.6-.6 12.5-1 5-.3 10.4-.8 12-1 1.7-.2 7.3-.7 12.5-1.1 5.2-.3 10.9-.7 12.5-.9 1.7-.1 7.1-.6 12-1 5-.3 10.8-.8 13-1 2.2-.2 8.1-.7 13-1.1 11.6-.9 13.4-1 23-1.8 4.4-.4 10.7-.9 14-1.1 3.3-.2 8.7-.6 12-.9 3.3-.3 9.2-.8 13-1.1 7.6-.6 15.3-1.2 24.3-2 3.1-.3 8.9-.8 12.7-1 3.9-.3 8.8-.7 11-.9 2.2-.2 8.5-.7 14-1 5.5-.4 11.1-.9 12.5-1.1 1.4-.2 6.8-.7 12-1 5.2-.3 11.1-.8 13-1 1.9-.1 7.3-.6 12-1 9-.7 14.8-1.1 24.5-2 3.3-.2 9.8-.7 14.5-1 4.7-.3 10.1-.8 12-1 1.9-.3 7.1-.7 11.5-1 4.4-.3 10.5-.7 13.5-1 3-.3 8.4-.7 12-1 3.6-.3 8.8-.8 11.5-1 2.8-.2 8.6-.7 13-1 8.1-.5 16.2-1.2 24.5-2 2.5-.2 8.3-.7 13-1 4.7-.3 9.9-.8 11.5-1 1.7-.2 8.2-.6 14.5-1 6.3-.4 11.6-.8 11.8-1 .2-.2 2.2-.1 4.5 0 2.3.2 9.1.6 15.1.9zm-732.1 609c3 4.5 7 18.8 9.3 33.2.3 2 .7 4.4.9 5.3.1.9.6 4.1 1 7.1s.9 6.3 1.1 7.4c2.2 11.8 2.6 54.1.6 59.8-1.8 4.9-3.5 4.8-6-.5-3.5-7.4-10-34.6-11.6-48.7-2.4-20.3-2.9-58.5-.9-63.3 1.5-3.3 3.6-3.5 5.6-.3z"/><path d="M469.8 193.6c-.2.1-3.4.5-7.3.9-14.1 1.4-27.2 4.8-34.9 9.1-5.2 2.9-6.4 4.2-7.6 8.2-.7 2.6-.4 3.5 1.6 5.7 2.8 3 11.4 7.1 16.8 7.9 2.1.4 4.1.8 4.5 1 .6.4 5.8 1.1 16.1 2.2 6.5.6 31.5.7 35.6 0 1.6-.2 5.2-.7 7.9-1.1 12.4-1.5 29.1-7.2 34.7-11.8 2.7-2.2 3.8-6 2.4-8.8-2.6-5.3-16.5-10.2-35.6-12.4-5.2-.7-33.7-1.4-34.2-.9zM746.5 244c-16.1 2.4-24.1 4.4-32.5 8.2-10 4.5-14 9.1-12 14.2 4.2 11.1 42.8 19.4 75.5 16.2 23.2-2.2 45.1-10 48.9-17.4 3.3-6.3-3.3-11.2-22.9-17.1-13.1-4-43.1-6.1-57-4.1zM1041 298.1c-13.2 1.6-17.6 2.4-25 4.5-14.7 4.2-22 11.9-17.5 18.7 1.9 2.9 13.1 9.1 19.3 10.7 2.3.5 6 1.5 8.2 2 2.2.6 5.7 1.3 7.8 1.6 2 .3 3.9.7 4.2.9 1 .6 20.6 1.8 29 1.8 33.2 0 61-8.7 61-19.1 0-3.8-4.5-8.4-12.5-12.4-12.8-6.6-30.3-9.7-52.5-9.5-9.1 0-19 .4-22 .8zM1249.9 465.4c-.2.3-4 .7-8.4 1.1-4.4.3-9.3.8-11 1-5.3.6-20.2 2.1-31 3-3.3.3-7.3.7-9 1-1.6.2-6.6.7-11 1-4.4.3-9.6.7-11.5 1-1.9.2-6.6.7-10.5 1.1-3.8.3-8.1.7-9.5.9-1.4.2-5.9.6-10 1-4.1.3-9.1.8-11 1-4.4.6-11.6 1.3-20 2-9.4.8-15.9 1.4-21 2-2.5.3-7 .7-10 1-3 .3-7.5.7-10 1-2.5.2-7.4.7-11 1-3.6.3-8.1.8-10 1-1.9.2-6.9.7-11 1-4.1.4-8.7.9-10.3 1-1.5.2-6.2.6-10.5 1-4.2.3-9.3.8-11.2 1-7 .8-13.7 1.5-20.5 2.1-3.8.3-8.1.7-9.5.8-1.4.2-5.6.6-9.5 1-3.8.4-9 .9-11.5 1.1-2.5.3-7.2.7-10.5 1-8.1.8-12.8 1.2-20.5 2-12.6 1.3-14.6 1.4-20.5 1.9-3.3.3-8.5.8-11.5 1.1-10.2 1.1-13.5 1.4-20 2-3.6.3-8.1.8-10 1-1.9.2-6.9.7-11 1.1-4.1.4-8.6.8-10 .9-1.4.2-6.1.6-10.5 1-4.4.3-9.1.8-10.5 1-1.4.2-6.1.7-10.5 1.1-4.4.3-8.7.8-9.5.9-.8.2-5.3.6-10 1s-9.8.9-11.5 1.1c-1.6.2-6.4.6-10.5.9-4.1.4-8.6.8-10 1-1.4.2-5.9.6-10 1-4.1.3-9.1.8-11 1-1.9.2-6.4.7-10 1-12.6 1.2-15.5 1.4-21 2-16 1.6-19.1 1.9-32 3-4.1.4-8.6.8-10 1-1.4.2-6.1.7-10.4 1-4.4.4-8.8.8-9.8 1-1 .2-5.7.7-10.6 1-4.8.4-9.4.8-10.2 1-.8.2-5.3.6-10 .9-4.7.4-9.6.9-11 1.1-1.4.2-5.9.7-10 1-4.1.4-8.6.8-10 1-1.4.2-5.9.7-10 1.1-4.1.3-8.6.8-10 .9-19.3 1.8-44.5 7.4-59 13-25.2 9.7-40.4 20.8-54.7 40-13.4 17.9-22.7 40.3-25.9 62.5-1 6.8-1 31.3-.1 56.5.4 10.4 1 25.5 1.2 33.5.5 15.3 1.2 35.7 2 60.5.3 8.2.8 22.4 1 31.5.3 9.1.7 23 1 31 .6 17.7 1.3 39.1 2 61 .3 9.1.7 23.5 1 32 .3 8.5.7 22.5 1 31 .6 19.5 1.4 44.3 2 62.5.3 7.7.7 21.2 1 30 .3 8.8.7 22.7 1 31 .3 8.2.7 22.4 1 31.5.3 9.1.7 22.1 1 29 .2 6.9.7 21.5 1 32.5.4 11 .8 24.9 1 31 .2 6 .6 20 1 31 .5 19.2.8 23.6 2.1 37 .9 10.2 3.4 24.9 5.9 35.5 2.9 12.2 7.8 25 12.8 33.5 10.4 17.8 31 35.9 52.7 46.4 9.5 4.6 27.3 10.1 37.5 11.6 2.3.3 5.2.7 6.5 1 7.5 1.5 25.3 1.5 34 .1 5.2-.8 11.3-1.7 13.5-2.1 2.3-.3 5.2-.7 6.5-1 1.3-.3 4.2-.7 6.5-1 2.2-.3 5.1-.8 6.5-1 1.4-.3 4.1-.7 6-1 1.9-.3 6-1 9-1.5s7.5-1.2 10-1.5c2.5-.3 5.6-.8 7-1 2.9-.5 21.4-3.4 25-4 9.5-1.5 47.7-7.5 51-8.1 1.4-.2 7.2-1.1 13-1.9 5.8-.9 11.6-1.8 13-2 2.9-.6 18.5-3.1 24.5-4 4.6-.6 15.8-2.4 19.5-3 9.3-1.5 16.9-2.7 19.5-3.1 1.7-.2 5.9-.9 9.5-1.5 3.6-.5 7.9-1.2 9.5-1.5 1.7-.2 4.1-.6 5.5-.9 1.4-.2 4.5-.7 7-1 2.5-.3 6.8-1 9.5-1.5 2.8-.5 6.8-1.2 9-1.5 2.2-.3 6.9-1 10.5-1.6 3.6-.6 7.6-1.2 9-1.4 1.4-.2 8.6-1.3 16-2.5s14.4-2.3 15.5-2.5c3.7-.5 12-1.8 13.7-2.1.9-.1 3.8-.6 6.5-1 2.6-.3 5.7-.8 6.8-1 2.1-.5 5.9-1 12.3-1.9 2-.3 4.4-.7 5.2-1 .8-.2 3.8-.6 6.5-1 2.8-.3 8.8-1.2 13.5-2 8.2-1.3 13.2-2.1 19.5-3.1 1.7-.3 5.5-.9 8.5-1.4 3-.5 7.3-1.2 9.5-1.4 3.8-.5 26.7-4.2 31-5 1.1-.2 4-.7 6.5-1 2.5-.3 5.6-.8 7-1 2.6-.5 7.6-1.2 13.8-2.1 2-.3 6-1 8.7-1.5 2.8-.5 6.8-1.1 9-1.4 2.2-.3 9.4-1.4 16-2.5s14-2.2 16.5-2.6c2.5-.3 9.7-1.4 16-2.5 6.3-1 13.5-2.1 16-2.5 2.5-.3 7-1 10-1.5s6.9-1.1 8.5-1.4c1.7-.2 5-.8 7.5-1.2 2.5-.4 5.2-.8 6-.9.8-.2 6.2-1 12-1.9 5.8-1 12.1-1.9 14-2.2 24.6-3.3 52.5-11.4 66.5-19.4 12.6-7.3 19-14.9 28-33.5 3.8-7.9 9.3-21.1 9.9-24 .1-.6 1-3.5 1.8-6.5 2-6.5 4.5-19 5.7-27.9.7-5.5.6-6.2-.5-4.6-.8 1-1.4 2.4-1.4 3.1 0 2.6-7 16.4-12.1 24-5.8 8.7-22.1 25.6-28.4 29.6-16.1 10.1-41 17.4-77.5 22.8-8 1.1-15.7 2.3-17.1 2.5-1.4.3-4.3.7-6.4 1-7.1.9-12 1.6-14.5 2-4.3.8-8 1.4-25.5 3.9-9.3 1.4-21.3 3.2-26.5 4-5.2.8-11.5 1.7-14 2.1-2.5.3-5.6.8-7 1-1.4.2-4.3.7-6.5 1-2.2.3-6.7 1-10 1.5s-7.9 1.2-10.3 1.5c-3.5.4-20.3 2.9-33.2 5-1.4.2-4.7.7-7.5 1.1-2.7.3-5.7.8-6.5.9-2.4.4-10.3 1.6-13 2-11.3 1.6-19 2.7-21.5 3.1-7.8 1.3-28.6 4.4-32.5 4.9-3.7.5-27.4 4-40.5 6-1.6.3-7.7 1.2-13.4 2-5.7.9-11.4 1.7-12.5 2-1.2.2-4.3.7-7.1 1-2.7.3-5.7.8-6.5 1-.8.2-3.7.6-6.5 1-2.7.3-9.3 1.3-14.5 2.1-5.2.8-11.3 1.7-13.5 2-2.2.3-6.5.9-9.5 1.4-3 .5-7.5 1.2-10 1.5-2.5.3-5.6.8-7 1-3.9.7-30.1 4.6-34 5.1-1.9.3-6 .9-9 1.4-3 .5-7.5 1.1-10 1.4-2.5.4-5.6.8-7 1.1-2.6.5-27.9 4.3-34 5.1-1.9.2-6.2.9-9.5 1.4-3.3.5-8.2 1.2-11 1.5-2.7.4-5.7.8-6.5 1-1.3.4-13.9 2.3-27 4.1-1.9.3-6 .9-9 1.4-7.5 1.2-11.5 1.8-18 2.5-3 .4-5.7.8-6 1-.3.2-2.9.6-5.9 1-3 .4-6.3.8-7.4 1.1-1.1.2-4.3.6-7 .9-2.8.3-5.3.8-5.6.9-2.9 1.8-33 2.8-41.6 1.4-21.2-3.4-42.3-13.6-56.3-27.4-8.9-8.7-18.2-28.2-21.2-44.4-3.2-16.7-3.8-23.3-4.5-50-.3-10.2-.7-23.5-1-29.5-.2-6.1-.7-19.8-1-30.5-.3-10.7-.8-25.8-1.1-33.5-.2-7.7-.6-20.3-.9-28-.5-16.1-1.3-42.7-2-63-.3-7.7-.7-21.4-1-30.5-.3-9.1-.8-23-1-31-.3-8-.7-21-1-29-.5-16.5-1.3-39.6-2-61.5-.3-8.3-.7-22-1-30.5-1.1-36.4-1.6-50.2-2-61-.2-6.3-.7-20.5-1-31.5-.4-11-.8-24.3-1-29.5-.1-5.2-.7-20.3-1.1-33.5-1-31.5-1.1-55.6-.1-63 1.2-9.5 4.6-22.2 8.2-30.7 13.1-31 36.6-50.5 72-59.8 9.2-2.4 17.6-3.8 33.5-5.5 2.5-.2 6.3-.7 8.5-.9 2.2-.3 6.7-.7 10-1 8.9-.9 14.4-1.5 20.5-2.2 3-.3 7.1-.7 9.1-.9 5.6-.5 16.1-1.6 18.9-2 1.4-.2 5.7-.6 9.5-1 3.9-.3 7.7-.8 8.5-1 .8-.2 5.1-.7 9.5-1 4.4-.4 9.1-.8 10.5-1 1.4-.1 5.9-.6 10-1s8.2-.9 9.1-1c.8-.2 4.9-.6 9-1 4.1-.3 8.5-.8 9.9-1 1.4-.2 5.7-.6 9.5-1 3.9-.4 7.7-.8 8.5-1 .8-.2 5.3-.6 9.9-1 4.7-.4 9.2-.8 10-1 .9-.1 4.5-.6 8.1-.9 3.6-.4 7.9-.8 9.5-1 1.7-.2 6.4-.7 10.5-1.1 4.1-.3 8.6-.8 10-1 1.4-.2 5.2-.7 8.5-1 3.3-.3 7.4-.7 9-.9 1.7-.2 6.4-.7 10.5-1 4.1-.4 8.6-.9 10-1.1 1.4-.2 5.4-.7 9-1 3.6-.4 7.9-.8 9.5-1 1.7-.2 5.7-.7 9-1 3.3-.3 7.1-.7 8.5-1 1.4-.2 6.1-.7 10.4-1 4.3-.4 8.6-.8 9.5-1 .9-.1 5-.6 9.1-1s8.2-.8 9-1c.8-.2 5.3-.6 10-1 4.7-.3 9.2-.8 10-1 .8-.2 4.9-.7 9.1-1 4.2-.3 8.5-.7 9.5-.9 1.1-.2 5.3-.7 9.4-1 4.1-.4 8.6-.9 10-1.1 1.4-.2 5.4-.7 9-1 3.6-.4 7.6-.8 9-1 1.4-.2 5.9-.7 10-1 4.1-.4 8.2-.9 9.1-1 .8-.2 5.3-.6 10-1 4.6-.4 9.1-.8 9.9-1 1.4-.2 7.4-.9 19.5-2.1 2.8-.3 6.1-.7 7.5-.9 1.4-.2 5.9-.7 10-1.1 4.1-.3 8.2-.7 9-.9.8-.1 5.1-.6 9.5-1 7.9-.7 9.2-.8 19-2 2.8-.3 7.5-.7 10.5-1 3-.3 6.6-.7 8-.9 1.4-.3 5.7-.8 9.5-1.1 3.9-.3 9-.8 11.5-1.1 11.9-1.2 14.8-1.5 18-1.9 1.9-.3 5.5-.7 8-.9 12.7-1.2 18.7-1.9 20.2-2.1.9-.2 5.2-.6 9.5-1 4.3-.3 8.5-.8 9.3-1 .8-.2 5.1-.7 9.5-1.1 4.4-.3 10.5-1 13.5-1.5 5.4-.7 32-.5 37 .4 11.1 2 23.9 6.9 31.5 12.1 15.2 10.3 30.3 32.3 35 51.1 1 3.8 2.1 7.4 2.5 7.8.8.9.5-23.5-.4-33-2.9-31.1-9.1-49.5-20.9-61.4-15.4-15.5-32.9-22.9-55.8-23.6-6.4-.1-11.8-.1-12 .1z"/><path d="M1151.1 639.1c-25.4 4.8-44.6 20-53 41.8-3.4 8.8-4 11.7-4.7 22.6-2.2 31.9 20.9 56.9 51.6 55.8 7.6-.2 20.4-3 26.3-5.7 1.7-.8 5.2-2.4 7.7-3.5 16.2-7.3 28.4-21.6 34.9-40.7 10.7-32.1-4.8-62.7-35.5-69.8-6.8-1.5-20.5-1.8-27.3-.5zM681 1145.2c-7.6 1.2-21 6-27.6 9.9-22.6 13.7-36.1 44-30.4 68.4 3.8 16.6 19.6 32.1 37 36.3 6.3 1.5 20.9 1.3 28.3-.4 24-5.5 43.2-20.6 53.2-41.6 11.3-23.8 6.3-47.5-13-61.8-3-2.2-7.1-4.7-9.2-5.6-2.1-.9-4.5-2-5.4-2.5-5.3-2.6-23.4-4.1-32.9-2.7z"/></svg>