<svg width="1522" height="629" viewBox="0 0 1522 629" xmlns="http://www.w3.org/2000/svg"><title>LogotypeColor</title><defs><linearGradient x1="52.336%" y1="-9.625%" x2="46.239%" y2="128.08%" id="a"><stop stop-color="#C4B8FD" offset="0%"/><stop stop-color="#817B9E" offset="52.728%"/><stop stop-color="#443A53" offset="100%"/></linearGradient><linearGradient x1="71.484%" y1="0%" x2="63.769%" y2="127.979%" id="b"><stop stop-color="#FC7F7F" offset="0%"/><stop stop-color="#E05858" offset="47.75%"/><stop stop-color="#C73661" offset="100%"/></linearGradient><linearGradient x1="74.999%" y1="-2.852%" x2="14.75%" y2="105.737%" id="c"><stop stop-color="#C4B8FD" offset="0%"/><stop stop-color="#817B9E" offset="47.18%"/><stop stop-color="#443A53" offset="100%"/></linearGradient><linearGradient x1="109.099%" y1="4.931%" x2="0%" y2="104.952%" id="d"><stop stop-color="#FC7F7F" offset="0%"/><stop stop-color="#E05858" offset="47.75%"/><stop stop-color="#C73661" offset="100%"/></linearGradient></defs><g fill="none" fill-rule="evenodd"><path d="M520.84 329.6V170.72c0-2.24.92-4.16 2.76-5.76 1.84-1.6 4.2-2.4 7.08-2.4h46.8c16 0 28.76 4.24 38.28 12.72s14.28 21.84 14.28 40.08v1.92c0 18.24-4.92 31.64-14.76 40.2-9.84 8.56-22.92 12.84-39.24 12.84h-29.76v59.28c0 2.56-1.24 4.6-3.72 6.12-2.48 1.52-5.48 2.28-9 2.28-3.36 0-6.32-.76-8.88-2.28-2.56-1.52-3.84-3.56-3.84-6.12zm25.44-79.44h29.76c9.12 0 16.16-2.6 21.12-7.8 4.96-5.2 7.44-13 7.44-23.4v-2.88c0-10.4-2.48-18.16-7.44-23.28-4.96-5.12-12-7.68-21.12-7.68h-29.76v65.04zm92.4 42v-22.08c0-12.64 4.88-23.68 14.64-33.12 9.76-9.44 21.44-14.16 35.04-14.16 13.28 0 24.88 4.68 34.8 14.04 9.92 9.36 14.88 20.44 14.88 33.24v22.08c0 12.48-5 23.56-15 33.24-10 9.68-21.56 14.52-34.68 14.52-13.28 0-24.88-4.8-34.8-14.4-9.92-9.6-14.88-20.72-14.88-33.36zm25.2 0c0 6.56 2.4 12.44 7.2 17.64 4.8 5.2 10.56 7.8 17.28 7.8 6.56 0 12.28-2.6 17.16-7.8 4.88-5.2 7.32-11.08 7.32-17.64v-22.08c0-6.4-2.44-12.16-7.32-17.28-4.88-5.12-10.6-7.68-17.16-7.68-6.72 0-12.48 2.56-17.28 7.68-4.8 5.12-7.2 10.88-7.2 17.28v22.08zm92.4 0v-21.6c0-14.24 4.16-25.76 12.48-34.56s20.72-13.2 37.2-13.2c10.4 0 19.12 1.8 26.16 5.4 7.04 3.6 10.56 7.64 10.56 12.12 0 2.72-1 5.44-3 8.16-2 2.72-4.36 4.08-7.08 4.08-.8 0-3.64-1.24-8.52-3.72-4.88-2.48-10.28-3.72-16.2-3.72-17.6 0-26.4 8.48-26.4 25.44v21.6c0 16.96 8.88 25.44 26.64 25.44 6.08 0 11.56-1.32 16.44-3.96 4.88-2.64 7.8-3.96 8.76-3.96 3.2 0 5.8 1.28 7.8 3.84 2 2.56 3 5.28 3 8.16 0 4.48-3.68 8.64-11.04 12.48-7.36 3.84-16.32 5.76-26.88 5.76-16.64 0-29.12-4.36-37.44-13.08-8.32-8.72-12.48-20.28-12.48-34.68zM862.6 329.6V164.72c0-2.4 1.12-4.36 3.36-5.88 2.24-1.52 5.2-2.28 8.88-2.28 3.68 0 6.76.76 9.24 2.28 2.48 1.52 3.72 3.48 3.72 5.88v106.8l50.16-46.08c1.44-1.44 3.2-2.16 5.28-2.16 2.72 0 5.44 1.28 8.16 3.84 2.72 2.56 4.08 5.28 4.08 8.16 0 2.08-.72 3.84-2.16 5.28l-30.96 27.6 37.68 54.24c.96 1.44 1.44 2.88 1.44 4.32 0 2.88-1.6 5.72-4.8 8.52-3.2 2.8-6.32 4.2-9.36 4.2-2.72 0-4.96-1.2-6.72-3.6l-35.28-52.08-17.52 15.84v30c0 2.08-1.28 4-3.84 5.76-2.56 1.76-5.6 2.64-9.12 2.64-3.52 0-6.44-.88-8.76-2.64-2.32-1.76-3.48-3.68-3.48-5.76zm108.24-37.44v-22.8c0-12.64 4.88-23.56 14.64-32.76 9.76-9.2 21.52-13.8 35.28-13.8 13.12 0 24.36 4.2 33.72 12.6 9.36 8.4 14.04 19 14.04 31.8 0 4.8-.56 8.68-1.68 11.64-1.12 2.96-2.88 5.04-5.28 6.24-2.4 1.2-4.64 1.96-6.72 2.28-2.08.32-4.8.48-8.16.48h-50.64v5.52c0 8 2.88 14.36 8.64 19.08 5.76 4.72 13.28 7.08 22.56 7.08 6.56 0 12.76-1.52 18.6-4.56 5.84-3.04 9.4-4.56 10.68-4.56 2.72 0 5.04 1.28 6.96 3.84 1.92 2.56 2.88 5.04 2.88 7.44 0 4-3.84 8.04-11.52 12.12s-17.12 6.12-28.32 6.12c-16.32 0-29.68-4.4-40.08-13.2-10.4-8.8-15.6-20.32-15.6-34.56zm25.2-19.92h39.84c3.52 0 5.88-.48 7.08-1.44 1.2-.96 1.8-2.88 1.8-5.76 0-6.4-2.32-11.84-6.96-16.32-4.64-4.48-10.4-6.72-17.28-6.72-6.72 0-12.48 2.12-17.28 6.36-4.8 4.24-7.2 9.64-7.2 16.2v7.68zm92.64 28.32V180.32c0-2.24 1.28-4.16 3.84-5.76 2.56-1.6 5.44-2.4 8.64-2.4s6.12.8 8.76 2.4c2.64 1.6 3.96 3.52 3.96 5.76v43.92h29.28c2.08 0 3.76.92 5.04 2.76 1.28 1.84 1.92 4.04 1.92 6.6 0 2.56-.64 4.76-1.92 6.6-1.28 1.84-2.96 2.76-5.04 2.76h-29.28v57.6c0 5.76 1.24 9.84 3.72 12.24 2.48 2.4 6.84 3.6 13.08 3.6h8.4c3.36 0 6 1.04 7.92 3.12s2.88 4.64 2.88 7.68-.96 5.6-2.88 7.68-4.56 3.12-7.92 3.12h-8.4c-28 0-42-12.48-42-37.44z" fill="url(#a)"/><path d="M537.32 384.08v-74.4c0-17.44 4.68-30.32 14.04-38.64s21.48-12.48 36.36-12.48c15.2 0 27.24 3.88 36.12 11.64 8.88 7.76 13.32 17.24 13.32 28.44 0 3.84-.6 6.4-1.8 7.68-1.2 1.28-3.24 1.92-6.12 1.92-4.96 0-7.6-2-7.92-6-.16-2.4-.48-4.72-.96-6.96s-1.44-4.76-2.88-7.56-3.32-5.24-5.64-7.32-5.56-3.8-9.72-5.16c-4.16-1.36-8.96-2.04-14.4-2.04-23.04 0-34.56 12.16-34.56 36.48v74.4c0 24.48 11.84 36.72 35.52 36.72 6.72 0 12.32-.92 16.8-2.76 4.48-1.84 7.76-4.52 9.84-8.04 2.08-3.52 3.48-6.52 4.2-9 .72-2.48 1.32-5.72 1.8-9.72.48-4.16 3.12-6.24 7.92-6.24 2.88 0 4.92.68 6.12 2.04 1.2 1.36 1.8 3.96 1.8 7.8 0 11.36-4.52 20.96-13.56 28.8-9.04 7.84-21.24 11.76-36.6 11.76-14.72 0-26.68-4.16-35.88-12.48-9.2-8.32-13.8-21.28-13.8-38.88zM656.92 404c0-12.32 4.76-20.88 14.28-25.68 9.52-4.8 23.4-7.2 41.64-7.2h12.24v-5.76c0-8.8-2.32-16.44-6.96-22.92-4.64-6.48-11.76-9.72-21.36-9.72-6.4 0-12.2 1.16-17.4 3.48-5.2 2.32-7.96 3.48-8.28 3.48-1.92 0-3.44-.88-4.56-2.64a10.52 10.52 0 0 1-1.68-5.76c0-3.04 3.44-5.84 10.32-8.4 6.88-2.56 14.24-3.84 22.08-3.84 15.04 0 26.04 4.36 33 13.08 6.96 8.72 10.44 19.8 10.44 33.24v62.4c0 1.76-.72 3.24-2.16 4.44-1.44 1.2-3.28 1.8-5.52 1.8-2.08 0-3.8-.6-5.16-1.8-1.36-1.2-2.04-2.68-2.04-4.44V417.2c-10.72 12.32-22.8 18.48-36.24 18.48-9.6 0-17.44-2.68-23.52-8.04-6.08-5.36-9.12-13.24-9.12-23.64zm15.6-1.44c0 6.72 1.92 11.72 5.76 15 3.84 3.28 8.88 4.92 15.12 4.92 7.52 0 14.68-2.8 21.48-8.4 6.8-5.6 10.2-11.2 10.2-16.8v-15.36H715c-6.4 0-11.8.24-16.2.72-4.4.48-8.76 1.36-13.08 2.64s-7.6 3.36-9.84 6.24c-2.24 2.88-3.36 6.56-3.36 11.04zm100.64 25.2V326.24c0-1.6.72-2.96 2.16-4.08 1.44-1.12 3.28-1.68 5.52-1.68 2.08 0 3.84.56 5.28 1.68 1.44 1.12 2.16 2.48 2.16 4.08v11.04c2.88-5.28 7.08-9.64 12.6-13.08 5.52-3.44 11.96-5.16 19.32-5.16 7.68 0 14.56 2.2 20.64 6.6 6.08 4.4 10.56 10.2 13.44 17.4 4-7.84 9.28-13.8 15.84-17.88 6.56-4.08 13.44-6.12 20.64-6.12 10.88 0 20.32 4.08 28.32 12.24s12 19.04 12 32.64v63.84c0 1.6-.76 3.04-2.28 4.32-1.52 1.28-3.4 1.92-5.64 1.92-2.08 0-3.88-.64-5.4-1.92-1.52-1.28-2.28-2.72-2.28-4.32v-63.84c0-9.44-2.76-16.88-8.28-22.32-5.52-5.44-11.88-8.16-19.08-8.16-7.36 0-13.88 2.76-19.56 8.28-5.68 5.52-8.52 12.6-8.52 21.24V428c0 4-2.64 6-7.92 6-5.12 0-7.68-2-7.68-6v-64.8c0-8.48-2.68-15.56-8.04-21.24-5.36-5.68-11.8-8.52-19.32-8.52s-14.12 2.76-19.8 8.28c-5.68 5.52-8.52 12.92-8.52 22.2v63.84c0 1.6-.8 3.04-2.4 4.32-1.6 1.28-3.44 1.92-5.52 1.92-2.08 0-3.88-.64-5.4-1.92-1.52-1.28-2.28-2.72-2.28-4.32zm190.4 55.92V326.24c0-1.6.72-2.96 2.16-4.08 1.44-1.12 3.28-1.68 5.52-1.68 2.08 0 3.84.56 5.28 1.68 1.44 1.12 2.16 2.48 2.16 4.08v11.04c2.88-5.12 7.12-9.44 12.72-12.96 5.6-3.52 12.08-5.28 19.44-5.28 11.84 0 22 4.4 30.48 13.2 8.48 8.8 12.72 19.36 12.72 31.68v26.16c0 12-4.28 22.6-12.84 31.8-8.56 9.2-18.44 13.8-29.64 13.8-7.04 0-13.52-1.8-19.44-5.4-5.92-3.6-10.24-7.96-12.96-13.08v66.48c0 1.44-.76 2.8-2.28 4.08-1.52 1.28-3.4 1.92-5.64 1.92-2.08 0-3.88-.64-5.4-1.92-1.52-1.28-2.28-2.64-2.28-4.08zm15.6-86.16c0 4.32 3 9.36 9 15.12s12.84 8.64 20.52 8.64c7.84 0 14.76-3.2 20.76-9.6 6-6.4 9-13.6 9-21.6v-26.16c0-7.84-3-14.88-9-21.12s-13.08-9.36-21.24-9.36c-7.68 0-14.44 2.8-20.28 8.4-5.84 5.6-8.76 12.96-8.76 22.08v33.6zM1075 404c0-12.32 4.76-20.88 14.28-25.68 9.52-4.8 23.4-7.2 41.64-7.2h12.24v-5.76c0-8.8-2.32-16.44-6.96-22.92-4.64-6.48-11.76-9.72-21.36-9.72-6.4 0-12.2 1.16-17.4 3.48-5.2 2.32-7.96 3.48-8.28 3.48-1.92 0-3.44-.88-4.56-2.64a10.52 10.52 0 0 1-1.68-5.76c0-3.04 3.44-5.84 10.32-8.4 6.88-2.56 14.24-3.84 22.08-3.84 15.04 0 26.04 4.36 33 13.08 6.96 8.72 10.44 19.8 10.44 33.24v62.4c0 1.76-.72 3.24-2.16 4.44-1.44 1.2-3.28 1.8-5.52 1.8-2.08 0-3.8-.6-5.16-1.8-1.36-1.2-2.04-2.68-2.04-4.44V417.2c-10.72 12.32-22.8 18.48-36.24 18.48-9.6 0-17.44-2.68-23.52-8.04-6.08-5.36-9.12-13.24-9.12-23.64zm15.6-1.44c0 6.72 1.92 11.72 5.76 15 3.84 3.28 8.88 4.92 15.12 4.92 7.52 0 14.68-2.8 21.48-8.4 6.8-5.6 10.2-11.2 10.2-16.8v-15.36h-10.08c-6.4 0-11.8.24-16.2.72-4.4.48-8.76 1.36-13.08 2.64s-7.6 3.36-9.84 6.24c-2.24 2.88-3.36 6.56-3.36 11.04zm97.52-125.76c0-2.72 1.04-5.04 3.12-6.96s4.64-2.88 7.68-2.88c2.88 0 5.32.96 7.32 2.88s3 4.24 3 6.96c0 2.72-1 5.08-3 7.08s-4.44 3-7.32 3c-3.04 0-5.6-1-7.68-3s-3.12-4.36-3.12-7.08zm3.12 150.96V326.24c0-1.6.72-2.96 2.16-4.08 1.44-1.12 3.28-1.68 5.52-1.68 2.24 0 4.12.56 5.64 1.68 1.52 1.12 2.28 2.48 2.28 4.08v101.52c0 1.6-.8 3.04-2.4 4.32-1.6 1.28-3.44 1.92-5.52 1.92-2.08 0-3.88-.64-5.4-1.92-1.52-1.28-2.28-2.72-2.28-4.32zm39.92 30c0-12 6.8-20.72 20.4-26.16-8.8-3.04-13.2-8.56-13.2-16.56 0-7.2 4-12.96 12-17.28-8.8-7.36-13.2-17.44-13.2-30.24v-9.12c0-11.68 3.8-21.16 11.4-28.44 7.6-7.28 17.56-10.92 29.88-10.92 11.2 0 20.56 3.36 28.08 10.08 2.4-4.64 5.12-8.32 8.16-11.04 3.04-2.72 6-4.08 8.88-4.08 2.24 0 4 .64 5.28 1.92 1.28 1.28 1.92 2.72 1.92 4.32 0 2.88-1.36 4.64-4.08 5.28-5.6 1.12-10.08 4.56-13.44 10.32 4.48 5.92 6.72 13.44 6.72 22.56v9.12c0 11.52-3.92 21.04-11.76 28.56s-17.84 11.28-30 11.28c-6.56 0-12.72-1.36-18.48-4.08-4.96 2.72-7.44 5.84-7.44 9.36 0 3.36 1.84 5.92 5.52 7.68 3.68 1.76 8.28 2.88 13.8 3.36 5.52.48 11.52 1.24 18 2.28 6.48 1.04 12.48 2.36 18 3.96s10.12 4.56 13.8 8.88c3.68 4.32 5.52 9.92 5.52 16.8 0 10.88-4.32 19.28-12.96 25.2-8.64 5.92-20 8.88-34.08 8.88-14.4 0-26.12-2.88-35.16-8.64-9.04-5.76-13.56-13.52-13.56-23.28zm15.12-1.44c0 6.56 3 11.84 9 15.84s14.12 6 24.36 6c10.08 0 17.96-2 23.64-6s8.52-9.36 8.52-16.08c0-3.2-.8-6-2.4-8.4-1.6-2.4-3.48-4.24-5.64-5.52-2.16-1.28-5-2.4-8.52-3.36-3.52-.96-6.6-1.6-9.24-1.92-2.64-.32-5.96-.64-9.96-.96l-8.4-.96c-14.24 4.48-21.36 11.6-21.36 21.36zm6-89.04c0 8.32 2.36 15.12 7.08 20.4 4.72 5.28 11.16 7.92 19.32 7.92 7.84 0 14.12-2.64 18.84-7.92 4.72-5.28 7.08-12 7.08-20.16v-9.12c0-8-2.36-14.6-7.08-19.8-4.72-5.2-11.08-7.8-19.08-7.8-8 0-14.36 2.6-19.08 7.8-4.72 5.2-7.08 11.8-7.08 19.8v8.88zm99.68 60.48V326.24c0-1.76.72-3.16 2.16-4.2 1.44-1.04 3.28-1.56 5.52-1.56 1.92 0 3.6.56 5.04 1.68 1.44 1.12 2.16 2.48 2.16 4.08v11.04c2.72-5.12 6.88-9.44 12.48-12.96 5.6-3.52 12.16-5.28 19.68-5.28 11.52 0 21.52 4.4 30 13.2 8.48 8.8 12.72 19.36 12.72 31.68v63.84c0 1.92-.8 3.44-2.4 4.56-1.6 1.12-3.44 1.68-5.52 1.68-1.92 0-3.68-.56-5.28-1.68-1.6-1.12-2.4-2.64-2.4-4.56v-63.84c0-7.84-2.96-14.88-8.88-21.12-5.92-6.24-12.96-9.36-21.12-9.36-7.52 0-14.16 2.8-19.92 8.4-5.76 5.6-8.64 12.96-8.64 22.08v63.84c0 1.6-.8 3.04-2.4 4.32-1.6 1.28-3.44 1.92-5.52 1.92-2.24 0-4.08-.64-5.52-1.92-1.44-1.28-2.16-2.72-2.16-4.32z" fill="url(#b)"/><path d="M69.901 396.011c.09 5.667-1.016 8.949-3.319 9.846-3.055 1.19-6.144-.832-9.267-6.067l-35.618-80.86c-3.562-7.916-5.933-14.54-7.112-19.87-1.18-5.33-2.436-15.008-3.769-29.034L0 64.713c.57-12.2 5.432-22.656 14.585-31.364 9.152-8.708 23.125-13.871 41.917-15.49L256.598.535c11.422-1.036 21.534-.564 30.336 1.414 8.802 1.979 16.462 5.685 22.98 11.12l65.736 61.266c5.977 4.934 7.576 11.804 4.797 20.61-2.78 8.806-11.126 13.647-25.04 14.522l-251.609 23.372c-11.225 1.147-20.942 6.106-29.15 14.876C65.84 157.127 61.623 167.282 62 178.18l7.902 217.832z" fill="url(#c)" transform="translate(76 92)"/><path d="M114.573 142.465c-3.052-5.946-1.927-10.56 3.375-13.841 5.302-3.282 11.999-5.181 20.092-5.698l190.423-11.096c6.293-.536 12.78-.195 19.462 1.022 6.68 1.218 12.168 3.793 16.46 7.724l39.829 43.096c2.1 3.647 2.476 6.764 1.125 9.353-1.35 2.588-5.306 3.97-11.868 4.147l-219.44 30.86c-7.641.622-13.882-.202-18.722-2.475-4.84-2.273-9.218-6.858-13.136-13.754l-27.6-49.338zm61.337-9.802c-8.859 0-19.514 1.99-20.958 5.88-1.444 3.888 7.865 5.994 18.506 6.164 10.642.17 21.664-2.994 21.664-6.612s-11.066-5.432-19.212-5.432zm87.708 9.222c-8.86 0-19.711 2.422-21.155 6.31-1.444 3.889 8.698 7.005 19.34 7.176 10.642.17 22.608-3.404 22.608-7.022 0-3.617-12.648-6.464-20.793-6.464zm87.775 11.513c-10.792.466-19.003 2.14-20.447 6.029-1.444 3.888 9.337 7.477 21.124 7.784 11.787.308 22.53-2.543 22.53-6.368s-10.994-7.972-23.207-7.445zM103.44 324.624c-.62-5.814-1.764-21.327.62-21.327 2.382 0 4.495 12.6 5.338 20.535.844 7.935.923 19.243-.826 19.243-1.75 0-4.513-12.636-5.132-18.45z" fill="#FFF"/><path d="M307.427 42.432c.594-17.61-1.735-29.06-6.986-34.351-5.946-5.992-13.274-8.643-21.984-7.954L48.291 22.371c-17.299 1.632-29.555 6.54-36.768 14.726C2.684 47.128-1.07 59.36.261 73.79l6.446 198.768c.878 15.406 3.939 26.263 9.181 32.573 9.254 11.136 21.998 16.65 38.232 16.54l214.196-33.637c14.887-2.297 24.094-6.195 27.618-11.695 5.528-8.625 8.665-18.358 9.41-29.198l2.083-204.71z" fill="url(#d)" transform="translate(154 212)"/><path d="M201.773 305.646c-.12-16.828 2.863-28.59 8.948-35.285 6.372-7.013 16.766-11.994 31.18-14.944l173.323-24.511c19.399-2.927 31.722-1.704 36.969 3.668 7.87 8.058 9.438 16.466 9.532 22.65 1.47 96.974.405 182.81-1.361 196.146-1.227 9.258-4.736 13.713-14.001 22.592-4.645 4.45-15.114 7.356-31.408 8.717l-172.27 13.272c-11.535 2.057-21.604-.407-30.205-7.393-5.762-4.68-9.043-13.297-9.843-25.85l-.864-159.062zm48.413 146.606c7.836 8.688 20.175 5.938 27.65.936 7.475-5.001 14.54-17.712 7.139-27.237-7.4-9.525-22.205-8.424-30.294-2.072-8.088 6.352-12.33 19.684-4.495 28.373zm133.6-147.356c7.835 8.688 20.253 5.156 27.728.154 7.475-5.002 13.245-19.373 5.844-28.898-7.4-9.526-21.926-7.42-30.014-1.067-8.088 6.352-11.394 21.122-3.559 29.811z" fill="#FFF"/></g></svg>