<svg version="1" xmlns="http://www.w3.org/2000/svg" width="2048" height="2048" viewBox="0 0 1536.000000 1536.000000"><path d="M964.9 105.5c-.2.2-4.7.6-9.9.9-5.2.4-10.6.8-12 1.1-1.4.2-6.1.7-10.5 1-4.4.3-10 .8-12.5 1-2.5.2-7.4.7-11 1-3.6.3-8.5.8-11 1-2.5.2-8.3.7-13 1.1-4.7.4-9.8.8-11.5.9-1.6.2-7 .6-12 1-4.9.4-10.1.8-11.5 1-1.4.2-5.9.7-10 1-4.1.3-9.5.8-12 1-2.5.2-7.6.6-11.5 1-9.2.8-16.3 1.4-22.7 2-2.9.3-8.7.7-12.8 1.1-4.1.3-9.1.7-11 .9-1.9.2-7.5.6-12.5 1-4.9.3-10.1.7-11.5 1-1.4.2-6.3.7-11 1-4.7.4-9.6.8-11 1-1.4.2-6.3.7-11 1-4.7.4-10.1.8-12 1-1.9.2-7.3.6-12 1-4.7.3-10.3.8-12.5 1-2.2.2-7.1.7-11 1-7.5.6-13.8 1.1-22.5 2-3 .3-8.4.7-12 1-3.6.3-9 .7-12 1-3 .3-8 .7-11 1-13 1.1-18.7 1.6-22 1.9-1.9.2-7.5.7-12.5 1.1-4.9.3-10.3.8-12 1-2.9.4-15.4 1.5-22.5 2-9.4.7-19.8 1.6-22.5 1.9-1.6.3-7 .7-12 1.1-4.9.4-10.6.8-12.5 1-1.9.2-7.3.7-11.9 1-4.7.4-9.2.8-10 1-.9.1-6.3.6-12.1 1-5.8.3-11.6.8-13 1-1.4.2-5.9.6-10 1-4.1.3-9.5.8-12 1-2.5.2-7.9.7-12 1-4.1.3-9.1.8-11 1-1.9.2-7.1.7-11.5 1-4.4.3-10.2.8-13 1-13.6 1.3-17.4 1.6-21.5 2-2.5.2-7.2.7-10.4 1-3.3.3-7.1.7-8.5 1-1.4.2-4.6.7-7.1 1-28.4 4-61.2 15.3-81 28-21.2 13.6-39 33.2-50.1 55.5-4 7.9-10.3 26-11.3 32-1.8 11.2-2.1 14.5-2 24 0 5.8.4 16.8.8 24.5.4 7.7.9 16.7 1.1 20 1.2 23.5 1.6 29.9 2 37 .3 4.4.7 12.7 1 18.5.3 5.8.7 14.5 1 19.5.3 4.9.7 13.5 1 19 .3 5.5.7 14 1 19 .8 15.3 1.4 27.5 2 39 .3 6 .7 14.4 1 18.5.5 8 1.3 23.4 2 39 .3 5.2.7 13.8 1 19 .3 5.2.7 13.5 1 18.5 1.2 23.3 1.6 31.5 2 37.5.2 3.6.6 12.3 1 19.5.3 7.1.8 16.1 1 20 .3 3.8.7 11.9 1 18 .3 6 .8 14.8 1 19.5.9 15.5 1.5 26.4 2 38 .3 6.3.8 14.9 1 19 .3 4.1.7 12.2 1 18 .7 14.5 1.3 26.4 2.1 40.5.9 17.2 1.1 21.5 1.8 35.5.4 6.9.9 15.9 1.1 20 .2 4.1.7 12.9 1 19.5.6 12.1 1.1 18.5 2 28.5.3 3 .8 7.7 1.1 10.5.2 2.7.7 6.6.9 8.5.2 1.9.7 5.5 1 8 .5 5.1 1.4 12 2 16.5.2 1.6.6 5.2 1 8 2.5 19.9 7 37.7 14.8 58.5 3.5 9.2 4.2 11 6.5 16 1.1 2.5 4.6 10.3 7.7 17.5 9.6 21.8 42.6 96.7 44.5 101 1 2.2 7.6 17 14.6 33 7 15.9 17.9 40.7 24.2 55 6.3 14.3 12.6 28.7 13.9 32 6.6 15.7 13.6 26 20.7 30.5 3.8 2.3 11.1 2.9 14.4 1.1 4-2.2 6.7-7.3 8-15.6 1-6.3.5-35-1.3-75.5-.2-4.1-.6-16.1-1-26.5-.3-10.5-.8-23.5-1-29-.4-10.7-1.3-32.8-2-54-.3-7.2-.7-19.3-1-27-.3-7.7-.7-20.5-1-28.5-.3-8-.7-20.1-1-27-.2-6.9-.7-19.5-1-28-.3-8.5-.7-21.1-1-28-.3-6.9-.7-19.3-1-27.5-.3-8.3-.7-20.6-1-27.5-.3-6.9-.7-19.5-1-28-.3-8.5-.7-20.7-1-27-.5-11-1.3-34.1-2-55.5-.7-21.6-1.7-48.4-2-57-.2-5-.7-17.3-1-27.5-.4-10.2-.8-21.9-1-26-1.9-43.9-2.5-81.8-1.2-89 4.5-26.8 18.7-52.3 41.7-74.8 23.4-23 52.6-36.9 83-39.7 8-.7 17.1-1.6 31-3 2.5-.3 7.9-.7 12-1 4.1-.4 9.1-.8 11-1 1.9-.2 6.7-.6 10.5-1 3.9-.3 9-.8 11.5-1 8.1-.8 14.4-1.4 21-2 3.6-.3 8.1-.7 10-1 1.9-.2 6.9-.7 11-1 4.1-.4 9.1-.8 11-1 1.9-.2 6.9-.7 11-1 4.1-.3 9.1-.8 11-1 1.9-.3 6.4-.7 10-1 12.5-1.1 26.2-2.4 32.5-3 2.2-.2 7.4-.7 11.5-1 4.1-.3 8.6-.7 10-1 1.4-.2 6.3-.7 11-1.1 4.7-.4 9.6-.8 11-.9 1.4-.1 5.9-.5 10-.9 4.1-.3 9.5-.9 12-1.1 2.5-.3 7-.7 10-1 3-.2 7.3-.6 9.5-.9 2.2-.3 7.4-.7 11.5-1.1 4.1-.3 9.1-.8 11-1 1.9-.2 6.9-.6 11-1 4.1-.3 9.1-.8 11-1 1.9-.2 6.7-.6 10.5-.9 3.9-.4 8.8-.9 11-1.1 2.2-.3 6.7-.7 10-1 3.3-.3 8-.7 10.5-1 2.5-.2 7.9-.7 12-1 4.1-.3 8.6-.8 10-1 1.4-.2 6.1-.6 10.5-1 4.4-.3 9.6-.8 11.5-1 1.9-.2 6.7-.7 10.5-1 3.9-.3 9.3-.8 12-1 2.8-.3 7-.7 9.5-1 2.5-.2 7.4-.7 11-1 3.6-.3 8.3-.8 10.5-1 2.2-.2 7.4-.6 11.5-1s8.6-.8 10-1c1.4-.2 6.6-.7 11.5-1.1 5-.3 9.7-.8 10.6-.9.8-.2 5.5-.6 10.5-1 4.9-.3 10-.8 11.4-1 1.4-.2 6.3-.7 11-1 4.7-.4 9.6-.8 11-1 2.4-.3 5.9-.7 21-2 3.6-.3 8.1-.8 10-1 1.9-.2 6.9-.7 11-1 4.1-.4 9.1-.8 11-1 1.9-.2 6.7-.6 10.5-.9 6.6-.6 11-1 21.5-2.1 5.1-.5 19.7-1.8 22-2 5.4-.4 19.1-1.7 22-2 1.9-.3 6.4-.7 10-1 3.6-.3 8.5-.7 11-1 2.5-.3 7.4-.7 11-1 13.4-1.1 18.1-1.5 31.3-3 2.3-.2 7.4-.7 11.2-1 44.4-3.7 67.3-17.1 76-44.6 7.4-23.6 3.8-42.5-11-57.3-5-5.1-19-18.2-31.4-29.5-1.4-1.3-8.2-7.7-15.1-14.1-6.9-6.4-13.8-12.9-15.5-14.4-1.6-1.6-8.2-7.6-14.5-13.6-6.3-5.9-13.1-12.2-15-14-3.6-3.3-24.6-22.9-28.5-26.5-18.1-17-42.8-40-44.4-41.4-1-.9-7.2-6.6-13.7-12.7-6.5-6.2-14.4-13.5-17.4-16.3-5.8-5.5-19.4-16.1-20.5-16.1-.4 0-2-.9-3.6-2.1-5.2-3.7-21.2-11.1-31.3-14.6-12.6-4.3-26-7.3-39.1-8.9-2.7-.3-6.1-.8-7.5-1.1-2.9-.6-50.6-1.4-51.1-.8zM979 165c14.5 1.4 16.7 1.7 26.5 4.1 20.7 5.2 36.5 14.2 48.2 27.5 2.8 3.3 7.1 8 9.5 10.5 2.3 2.5 8.8 9.4 14.3 15.4 5.5 5.9 10.5 11.3 11 11.9 2.2 2.4 28.2 30.5 33.8 36.6 3.3 3.6 8.1 8.7 10.6 11.5 2.6 2.7 10.5 11.3 17.6 19 7.1 7.7 13.2 14.2 13.5 14.5 1.9 1.6 5.9 8.1 7.4 12.2 2.6 6.9 2.2 16.9-.8 20.5-6.4 7.8-13 10.1-33.1 11.7-2.7.3-7.9.9-11.5 1.5-3.6.5-8.9 1.3-11.9 1.6-3 .4-6.3.8-7.4 1.1-1.1.2-4.1.6-6.6.9-2.5.3-5.5.7-6.6.9-1.1.2-4.2.7-7 1-7.5 1-18.7 2.6-21.5 3.1-1.4.2-5.9.8-10 1.4-4.1.6-9.1 1.2-11 1.5-1.9.3-7.1 1-11.5 1.6-4.4.6-9.1 1.3-10.5 1.5-1.4.2-5 .7-8 1-3 .3-6.2.8-7 1-.8.2-3.5.7-6 1-2.5.3-5.6.8-7 1-1.4.2-4.7.7-7.5 1-2.7.3-6.1.8-7.5 1-2.1.3-12.2 1.7-21 3-1.4.2-4.3.6-6.5.9-2.2.3-5.8.8-8 1.1-2.2.3-4.9.6-6 .9-1.1.2-4.7.7-8 1.1-3.2.4-6.6.8-7.5 1-1.5.3-9 1.3-14.5 2.1-1.6.2-4.8.6-7 .9-2.2.4-5.1.8-6.5 1-1.4.2-4.3.6-6.5 1-2.2.3-5.3.7-7 .9-6.2.8-27.1 3.7-30 4.2-1.6.3-4.3.7-6 .9-1.6.1-9.5 1.2-17.5 2.4-8 1.1-16.3 2.3-18.5 2.6-2.2.3-6.9 1-10.5 1.5-13.7 2-26.9 3.8-32.5 4.5-2.7.3-7.5 1-10.5 1.5s-7.9 1.2-10.9 1.5c-3 .4-6.1.8-7 1-.9.1-3.8.6-6.6.9-2.7.4-8.1 1.2-12 1.7-3.8.6-8.6 1.2-10.5 1.5-1.9.2-5 .6-6.7.9-1.8.3-4.9.7-6.8 1-1.9.3-5.2.7-7.2 1-6.9 1-16.7 2.4-20.8 3-2.2.3-5.6.8-7.5 1.1-1.9.3-5 .7-6.8.9-5.8.7-11.6 1.5-14.2 2-1.4.2-4.9.7-7.9 1-3 .4-6.3.8-7.4 1.1-1.1.2-5.7.8-10.1 1.4-9.5 1.3-11.6 1.6-17.6 2.6-2.5.4-5.6.8-7 .9-1.4.2-4.5.6-7 1s-5.6.8-7 1c-3 .3-12.9 1.6-15 2-1.6.3-15.5 2.3-20.5 3-7.7 1-41.3 5.6-43.5 6-36.9 5.8-60.9 3.3-80.6-8.6-14.5-8.7-25.4-23.4-47.1-62.9-1.7-3-12.5-22.4-24-43-11.6-20.6-24.4-43.6-28.6-51-4.1-7.4-8.9-16-10.7-19-7-12.2-9.3-18.3-9.8-25.7-.5-8.6 1.5-13.7 8-20.2 4-3.9 21.6-13.6 26.5-14.5 1.2-.3 3-.9 4-1.4 1-.6 3.2-1.2 4.8-1.5 1.7-.3 3.7-.8 4.5-1.1 1.5-.5 3.9-.9 16-2.6 6.7-.9 15.9-1.6 33.5-2.5 5.5-.3 13.2-.8 17-1 3.9-.2 11.3-.7 16.5-1 5.2-.3 12.9-.7 17-1 12.8-.8 27.2-1.6 35.5-2 10-.5 26-1.4 34.5-2 3.6-.3 11.5-.7 17.5-1 6.1-.3 13.7-.7 17-1 3.3-.2 10.4-.7 15.8-1 13.5-.7 28-1.5 35.7-2 3.6-.3 11-.7 16.5-1 5.5-.3 12.9-.7 16.5-1 3.6-.2 11.7-.7 18-1 6.3-.3 14.4-.8 18-1 8.4-.6 21.9-1.4 34.5-2 5.5-.3 12.9-.8 16.5-1 6.9-.5 22.5-1.4 35-2 4.1-.3 11.8-.7 17-1 5.2-.3 13.1-.7 17.5-1 4.4-.3 12.1-.7 17-1 5-.3 12.4-.7 16.5-1 4.1-.2 12-.7 17.5-1 5.5-.3 13.4-.7 17.5-1 4.1-.3 11.7-.8 16.9-1 5.1-.3 12.5-.7 16.5-.9 3.9-.3 12.1-.8 18.1-1.1 6.1-.3 13.7-.8 17-1 3.3-.2 11-.7 17-1.1 6.1-.3 11.1-.7 11.2-.8.5-.4 15.3.4 26.3 1.4zM270.3 741.4c3.2 4.8 8 22.7 10.1 37.6.2 1.9.8 5.7 1.2 8.5.3 2.7.8 5.8 1 6.7 2.2 12.5 2.6 54.3.6 60-.8 2.1-1.9 3.8-2.7 3.8-4.7 0-13.8-37.1-16.2-66.3-1.3-14.7-1-46.8.4-50 1.5-3.3 3.6-3.5 5.6-.3z"/><path d="M466.8 227.5c-.1.2-2.8.6-5.8.9-11.9 1.1-24.6 4.4-32 8.1-16 8.1-11 18.6 11 23 .8.2 2.6.6 4 .9 8.6 2.1 42.2 3 53.8 1.5 19.7-2.6 37.5-9 41.1-15 1.8-2.9 1.8-3.5.6-5.9-1.8-3.4-4.5-5.2-12-7.8-5.4-1.8-9.5-2.8-20.5-4.7-3.8-.7-39.6-1.6-40.2-1zM745.8 254.4c-.1.2-5 .6-10.8 1-13.6.8-16 1.2-27.4 4.1-15.4 3.9-25.6 10.4-25.6 16.3 0 5.5 9.8 11.5 24.6 15.1 11.7 2.9 18.3 3.6 35.4 3.6 19.7 0 27.4-.9 42-5.2 24.5-7 30.7-16.3 16-23.8-5.7-2.9-20.3-7.3-26.9-8.1-2.5-.3-4.8-.7-5.2-.9-.3-.3-4.9-.7-10-1.1-5.2-.3-9.9-.7-10.6-.9-.6-.2-1.3-.2-1.5-.1zM1001.9 289.4c-.2.2-4 .6-8.4 1-28.1 2.2-45.7 9.6-45.7 19.1 0 3.5 3.5 7.1 10.6 10.7 30.1 15.2 102.6 13 117.7-3.5 5.3-5.7 2.1-11.3-10-17.4-7.3-3.7-18.8-7.1-29.3-8.9-3.8-.6-34.4-1.5-34.9-1zM1249.8 465.5c-.1.2-3.7.6-7.8 1s-8.7.8-10.3 1c-1.5.2-6.2.7-10.5 1-4.2.4-8.8.8-10.2 1-1.4.2-5.4.7-9 1-3.6.3-8.5.8-11 1-2.5.3-7.4.7-11 1-6.1.5-12 1.1-20 2-1.9.2-6.9.7-11 1-4.1.4-8.6.8-10 1-1.4.2-6.3.7-11 1-4.7.4-9.2.9-10.2 1-.9.2-5.7.6-10.8 1-5 .3-9.9.8-10.8.9-.9.2-5.2.7-9.4 1.1-4.3.3-9 .8-10.6 1-1.6.2-6.2.6-10.3 1-4.1.3-9 .8-10.9 1-4.3.5-11.2 1.2-21 2.1-4.1.4-8.6.8-10 .9-1.4.2-6.1.6-10.5 1s-8.7.8-9.5 1c-.8.1-5.3.6-10 1s-9.6.9-11 1c-1.4.1-5.9.6-10 .9-4.1.4-9.1.9-11 1.1-1.9.3-6.4.7-10 1-3.6.3-8.5.8-11 1-2.6.2-7.3.7-10.5 1-3.3.3-7.8.7-10 1-2.2.2-7.1.7-11 1-3.8.4-8.1.8-9.5 1-1.4.2-5.9.7-10 1-4.1.3-8.6.8-10 1-1.4.2-6.3.7-11 1-4.7.4-9.8.9-11.5 1.1-1.6.2-5.9.6-9.5.9-3.6.3-8.1.8-10 1-1.9.3-6.6.7-10.5 1.1-3.8.3-8.6.7-10.5.9-1.9.2-6.9.6-11 1s-8.6.8-10 1c-1.4.2-5.9.7-10 1-4.1.4-9.1.9-11 1.1-1.9.1-6.4.6-10 .9-3.6.3-8.3.7-10.5 1-8.6.9-36.4 3.6-41.5 4-1.9.1-6.4.6-10 .9-3.6.4-8.7.9-11.5 1.2-9.6.9-16 1.5-19.5 1.9-3.9.5-14.5 1.5-20.5 2-14.3 1.1-20.2 1.7-21.5 2-.8.2-5.5.7-10.5 1.1-4.9.3-9.9.8-11 1-1.1.2-5.4.6-9.5.9-4.1.3-9.1.8-11 1-3.7.5-9.4 1-20 2-13.3 1.2-22.5 2.4-31 4-4.1.8-8.6 1.7-10 1.9-19.6 3.6-45.6 14.4-59.8 24.8-21.4 15.6-39.8 45-46.7 74.4-3.2 13.8-3.6 27.2-2.1 68.4 1.2 34.7 1.6 44.9 2.1 62 .3 9.1.7 22.8 1 30.5.3 7.7.7 22.1 1 32 .3 9.9.7 24.1 1 31.5.5 14.5 1.2 36.2 2 61 .4 14.4.8 25.7 2 62.5.2 7.7.7 21.6 1 31 .3 9.3.7 23.5 1 31.5.3 8 .7 21.5 1 30 1.2 38.5 1.5 48.5 2 63 .3 8.5.7 21.6 1 29 1 32.1 1.7 52.6 3 94.5.3 11 .8 22.2 1 25 1.3 15.3 1.8 19 3.5 29.5 2.3 13.4 2.4 14 5.4 25 2.2 8.3 8 22.2 11.9 28.5 6.2 10.1 22.2 26.2 33.7 33.9 15.4 10.3 27.6 15.7 46 20 21.9 5.2 34.2 5.6 57.5 2.1 9.9-1.5 18.9-2.9 20-3.1 1-.2 3.5-.6 5.5-.9 2-.3 4.7-.7 6-1 1.4-.3 4.3-.7 6.5-1 2.2-.3 5.1-.7 6.5-1 1.4-.3 4.3-.8 6.5-1.1 2.2-.2 9.6-1.4 16.5-2.5s13.6-2.2 15-2.4c3.7-.5 11.3-1.7 13-2 .8-.1 4.7-.8 8.5-1.4 3.9-.6 12.9-2 20-3.1 18.2-2.9 17.5-2.8 22.5-3.5 2.5-.3 7-1 10-1.5s7.1-1.2 9-1.5c1.9-.3 6-1 9-1.5s7.3-1.2 9.5-1.5c4.4-.6 15.5-2.3 19.5-3 1.4-.2 11.5-1.8 22.5-3.5s20.7-3.2 21.5-3.5c.8-.2 4-.7 7-1 3-.3 6.2-.8 7-1 .8-.2 3.5-.7 6-1 4.6-.6 7.9-1.2 11.5-1.9 1.1-.2 4.5-.7 7.5-1.1 3-.4 6.4-.9 7.5-1.1 1.1-.2 9.4-1.6 18.5-2.9 9.1-1.4 17.2-2.7 18-3 .8-.2 4-.7 7-1 3-.4 5.7-.8 6-1 .3-.2 3-.6 6-1 5.2-.6 7.5-.9 13.8-2 10.4-1.7 23.1-3.7 25.2-4 1.4-.2 6.8-1 12-1.9 5.2-.8 11.3-1.7 13.5-2.1 2.3-.3 5.2-.7 6.5-1 1.3-.3 4.2-.7 6.5-1 2.2-.4 9.6-1.5 16.5-2.6s13.6-2.2 15-2.4c4.3-.6 17.4-2.6 20-3.1 1.4-.2 6.8-1.1 12-1.9 5.2-.8 10.6-1.7 12-1.9 1.4-.3 4.3-.7 6.5-1 2.2-.4 5.1-.8 6.5-1.1 1.4-.2 4.2-.7 6.3-1 6.6-.9 10.9-1.6 26.2-4 8.3-1.3 24-3.8 35-5.5 58-9.1 64.1-10.2 80-14.8 18-5.3 31.8-12.1 39.8-19.7 4.8-4.6 11.3-14.6 16.5-25.6 3.7-7.8 8.8-20.2 9.7-23.9.3-.8 1.4-4.8 2.5-8.9 2.3-8.6 4.6-21.7 5.5-31.1l.5-6.5-1.9 4c-1.1 2.2-2 4.5-2.1 5.1 0 1.4-9.7 16-13.5 20.4-1.6 1.9-8 8.4-14.2 14.6-12.1 12-19.2 16.6-34.3 21.7-7.5 2.5-23 6.2-30.5 7.2-2.2.3-5.1.8-6.5 1.1-1.4.2-4.3.6-6.5.9-2.2.3-6.2.7-9 1-2.7.4-6.6.8-8.5 1-1.9.3-6.8.7-10.7 1-6.8.5-15.7 1.1-26.3 2-2.5.2-8.3.6-13 1-4.7.3-10.5.8-13 1.1-2.5.2-8.1.6-12.5.9-4.4.3-10.2.7-13 .9-2.7.3-8.8.7-13.5 1-4.7.4-11 .8-14 1.1-3 .2-8.9.7-13 1-4.1.3-10 .8-13 1-3 .3-8.6.7-12.5 1-3.8.3-9.5.8-12.5 1-3 .3-8.9.7-13 1-4.1.3-10 .8-13 1-3 .3-8.9.7-13 1-4.1.3-10 .7-13 1-7.3.6-18.1 1.4-25.5 2-3.3.2-9.4.7-13.5 1-4.1.3-10 .8-13 1-3 .2-8.9.7-13 1-4.1.3-10.3.8-13.7 1-3.5.3-9.3.7-13 1-3.8.3-9.5.7-12.8 1-3.3.2-9.6.7-14 1-4.4.3-9.6.8-11.5 1-1.9.2-7.8.7-13 1-5.2.3-11.5.8-14 1-2.5.3-7.6.7-11.5 1-3.8.3-9.7.7-13 1-3.3.2-9.4.7-13.5 1-4.1.3-10 .7-13 1-3 .3-9.3.7-14 1-4.7.3-10.5.7-13 1-2.5.2-7.6.7-11.5 1-3.8.3-9.9.7-13.5 1-3.6.3-9 .7-12 1-3 .2-9.5.7-14.5 1.1-10.4.7-12.5.9-22 2-3.8.5-13.3.8-21 .8-11.5-.1-15.7-.6-23.6-2.7-23-6-44.4-20.2-54.3-35.9-6.1-9.7-12.1-26.8-14.1-40.3-.4-2.2-.8-5.1-1-6.5-1.3-8.4-1.6-22.8-2-87.5-2-363-2.2-425-1.2-435 2.8-29.4 8.6-50.4 18-66 2.1-3.5 10.1-12.8 14.5-17 15.5-14.3 42.1-27.1 72.8-35 12.2-3.1 12-3.1 27.4-5.1 1.9-.3 4.6-.7 6-.9 1.4-.3 4.5-.7 7-1 2.5-.3 5.6-.7 7-1 1.4-.2 5-.7 8-1 3-.4 6.4-.9 7.4-1.1 1.1-.2 5.6-.8 10-1.4 4.5-.6 9.2-1.3 10.6-1.5 1.4-.2 4.3-.7 6.5-1 2.2-.3 5.6-.7 7.5-1 1.9-.2 5.3-.7 7.5-1.1 2.2-.4 5.4-.8 7-1 2.6-.3 55.9-7.8 62.5-8.9 1.4-.2 5-.7 8-1 3-.4 6.2-.8 7-1 1.6-.3 9.9-1.5 14-2 1.4-.2 4.3-.7 6.5-1 2.2-.3 5.6-.7 7.5-1 3.3-.4 49.6-6.9 57-8 1.9-.3 5.3-.8 7.5-1.1 2.2-.3 5.1-.8 6.5-1 1.4-.2 7.7-1.1 14-1.9 6.3-.8 12.4-1.7 13.5-1.9 1.1-.2 4.9-.7 8.5-1.1 3.6-.4 6.7-.8 7-1 .3-.2 2.8-.6 5.5-.9 2.8-.4 11.3-1.6 19-2.7 7.7-1.1 15.4-2.1 17-2.4 1.7-.2 8-1.1 14-2 6.1-.8 12.8-1.8 15-2.1 2.2-.2 5.1-.7 6.5-.9 1.4-.2 4.8-.7 7.5-1 2.8-.3 5.7-.8 6.5-1 .8-.2 3.8-.6 6.5-1 2.8-.3 6.1-.8 7.5-1 3.2-.5 16.2-2.3 22-3 2.5-.4 5.6-.8 7-1 2.8-.4 16.6-2.4 22-3.1 1.9-.3 4.6-.7 6-.9 1.4-.2 10.8-1.6 21-3s19.6-2.8 21-3c1.4-.2 4.8-.7 7.5-1 2.8-.3 8.4-1.1 12.5-1.6 10-1.4 45.1-2 52-.8 14.5 2.3 17.2 3 24.8 6.5 7.7 3.5 16.8 11.3 21.9 18.7 1.5 2.3 3.1 4.4 3.4 4.7 3.1 2.6 12 23.5 13.4 31.3 1.4 7.6 2.2 4.3 1.9-8.3-.2-12-1-24.8-1.9-30.2-.2-1.3-.6-4.3-.9-6.8-2-15.5-7.4-30.6-14.4-39.8-9.8-13-29.4-24.8-45.8-27.7-4.2-.7-26-1.6-26.6-1z"/><path d="M1150.5 639.4c-25.9 5.3-43.9 19.6-52.4 41.5-3.7 9.5-4.5 14.3-4.5 25.6-.1 13.3 1.5 19.7 7 29.2 14.4 24.4 44.4 30.4 76.6 15.3 18.5-8.6 30.4-22.1 36.7-41.5 6.9-21.3 2.9-42.2-10.7-56.1-6.2-6.3-11.3-9.4-20.2-12.4-7.8-2.6-23.5-3.4-32.5-1.6zM753.8 1086.5c-.1.1-2.1.5-4.3.9-17.4 2.5-34.9 14-45 29.6-13.4 20.8-14.9 44.7-3.7 62.4 5.4 8.7 19.9 19.5 28.3 21.1 1.1.2 3 .7 4.1 1.1 4.8 1.5 18.5 1 27.4-1 12.3-2.7 26.5-10 35.3-18.2 12-11.1 19.5-24.4 22.7-39.9.6-2.9.6-13.6 0-16.4-2.2-10.1-5.8-16.5-13.5-24.1-11.3-11-24.1-15.8-42.1-15.8-4.9 0-9 .1-9.2.3z"/></svg>